<?xml version="1.0" encoding="utf-8"?>
<!-- Generator: Adobe Illustrator 16.0.3, SVG Export Plug-In . SVG Version: 6.00 Build 0)  -->
<!DOCTYPE svg PUBLIC "-//W3C//DTD SVG 1.1//EN" "http://www.w3.org/Graphics/SVG/1.1/DTD/svg11.dtd">
<svg version="1.1" id="Layer_1" xmlns="http://www.w3.org/2000/svg" xmlns:xlink="http://www.w3.org/1999/xlink" x="0px" y="0px"
	 width="2000.701px" height="2000.52px" viewBox="0 0 2000.701 2000.52" enable-background="new 0 0 2000.701 2000.52"
	 xml:space="preserve">
<title>Electrical Plug</title>
<g>
	<title>Layer 1</title>
	<path id="path2821" d="M1600.115,51.375c-32.015-40.365-90.35-47.095-130.715-15.08l-296.658,235.289L1027.691,88.7
		c-10.113-12.806-30.995-15.211-43.762-5.048l-282.639,224.17c-240.057,190.396-307.147,516.86-178.522,781.202L55.248,1459.831
		c-60.54,48.015-70.614,135.343-22.598,195.882c48.015,60.539,135.343,70.613,195.881,22.598l467.521-370.808
		c228.109,185.436,561.274,194.443,801.331,4.046l282.637-224.17c12.807-10.114,15.212-30.996,5.049-43.764l-145.051-182.883
		l296.658-235.289c40.365-32.016,47.096-90.35,15.08-130.717c-32.016-40.365-90.35-47.094-130.715-15.079l-296.658,235.289
		l-236.004-297.558l296.656-235.289C1625.402,150.075,1632.132,91.74,1600.115,51.375L1600.115,51.375z"/>
</g>
</svg>
