# This file uses centimeters as units for non-parametric coordinates.

mtllib shelf03.mtl
g default
v -0.553865 0.312119 0.640658
v -0.521346 -0.006523 0.796385
v -0.554493 0.189066 0.933416
v -0.553865 0.312119 -0.810256
v -0.521346 -0.006523 -0.767653
v 0.500000 0.000000 0.750000
v 0.554493 0.189066 0.933416
v -0.237304 0.238758 0.904505
v -0.498478 0.312119 0.640973
v -0.498478 0.312119 -0.754870
v 0.553865 0.312119 -0.810256
v 0.500000 0.000000 -0.750000
v 0.553865 0.312119 0.640658
v 0.236586 0.238404 0.904514
v -0.499215 0.218464 0.889541
v -0.450000 0.100000 0.560093
v -0.450000 0.100000 -0.700000
v 0.498478 0.312119 -0.754870
v 0.076614 0.078971 0.705413
v -0.076614 0.078971 0.705413
v -0.236986 0.241057 0.889505
v -0.450000 0.100000 0.700000
v 0.450000 0.100000 -0.700000
v 0.450000 0.100000 0.560093
v 0.498478 0.312119 0.640973
v 0.499215 0.218464 0.889541
v 0.180509 0.131423 0.772012
v 0.077593 0.100000 0.700000
v -0.077593 0.100000 0.700000
v -0.180509 0.131423 0.772012
v -0.184030 0.141652 0.755958
v 0.450000 0.100000 0.700000
v 0.236986 0.241057 0.889505
v 0.184030 0.141652 0.755958
v -0.190036 0.291060 1.062473
v -0.190012 0.306785 1.054574
v -0.072267 0.324322 1.140692
v -0.072243 0.340047 1.132793
v 0.190224 0.306040 1.053586
v 0.190200 0.289670 1.061744
v 0.072971 0.324037 1.140315
v 0.072994 0.339762 1.132416
v -0.237723 0.232170 0.932271
v 0.242912 0.232181 0.932537
vt 0.511775 0.645274
vt 0.594785 0.734524
vt 0.511809 0.030740
vt 0.594785 0.000000
vt 0.057877 0.734529
vt 0.101214 0.818965
vt 0.495106 0.645408
vt 0.495139 0.042175
vt 0.140762 0.030746
vt 0.057877 0.000005
vt 0.942123 0.000005
vt 0.140799 0.645279
vt 0.298126 0.723992
vt 0.526765 0.799983
vt 0.459519 0.645419
vt 0.459540 0.054211
vt 0.157432 0.042180
vt 0.362220 0.723992
vt 0.253860 0.751388
vt 0.459672 0.711061
vt 0.193715 0.054216
vt 0.193735 0.645424
vt 0.157468 0.645413
vt 0.125809 0.799988
vt 0.292601 0.711115
vt 0.366493 0.711115
vt 0.410259 0.751388
vt 0.417956 0.741035
vt 0.193737 0.711066
vt 0.222710 0.814789
vt 0.245419 0.741035
vt 0.417956 0.887370
vt 0.410259 0.879920
vt 0.362220 0.911238
vt 0.298126 0.911238
vt 0.247519 0.951102
vt 0.253860 0.879920
vt 0.223656 1.000000
vt 0.441390 1.000000
vt 0.440443 0.814789
vt 0.424407 0.819331
vt 0.719319 0.818959
vt 0.222710 0.823368
vt 0.236540 0.819331
vt 0.418903 0.951102
vt 0.245419 0.887370
vt 0.292601 0.923007
vt 0.366493 0.923007
vt 0.837651 0.818959
vt 0.613232 0.818959
vt 0.911122 0.818959
vt 0.942072 0.734529
vn -0.994757 -0.102259 -0.001514
vn -0.994634 -0.103383 -0.003839
vn -0.990123 -0.128476 -0.056127
vn -0.017294 0.997803 0.063954
vn -0.017136 0.997843 0.063370
vn -0.098818 0.921384 0.375881
vn -0.097612 0.919193 0.381519
vn -0.994833 -0.101527 0.000000
vn -0.994833 -0.101527 0.000000
vn 0.016960 -0.579640 0.814696
vn 0.016960 -0.579640 0.814696
vn 0.016960 -0.579640 0.814696
vn 0.016960 -0.579640 0.814696
vn 0.015885 -0.609285 0.792793
vn 0.015812 -0.609722 0.792458
vn -0.105039 0.930567 0.350732
vn -0.130507 0.965109 0.227007
vn 0.000000 1.000000 -0.000000
vn 0.000000 1.000000 -0.000000
vn 0.008677 -0.161224 -0.986880
vn 0.008677 -0.161224 -0.986880
vn 0.008677 -0.161224 -0.986880
vn 0.008677 -0.161224 -0.986880
vn 0.006387 -0.999980 0.000000
vn 0.006387 -0.999980 0.000000
vn 0.006387 -0.999980 0.000000
vn 0.006387 -0.999980 0.000000
vn 0.985063 -0.172090 -0.005966
vn 0.985244 -0.171129 -0.003135
vn 0.976372 -0.198457 -0.085512
vn 0.974865 0.222798 0.000000
vn 0.974865 0.222798 0.000000
vn 0.974865 0.222798 0.000000
vn 0.974623 0.223817 0.003863
vn 0.974426 0.224606 0.006858
vn -0.000000 1.000000 -0.000000
vn -0.000000 1.000000 -0.000000
vn 0.985433 -0.170063 0.000000
vn 0.985433 -0.170063 0.000000
vn 0.098520 0.920954 0.377010
vn 0.017136 0.997843 0.063370
vn 0.017294 0.997803 0.063954
vn 0.097128 0.918250 0.383905
vn -0.005544 0.939755 0.341805
vn -0.250098 0.899550 0.358136
vn 0.000405 0.852468 -0.522779
vn 0.000609 0.780173 -0.625563
vn 0.000256 0.780156 -0.625585
vn 0.000727 0.852458 -0.522795
vn 0.000000 0.250430 0.968135
vn 0.000000 0.250430 0.968135
vn 0.000000 0.250430 0.968135
vn 0.000000 0.250430 0.968135
vn 0.000000 1.000000 -0.000000
vn 0.000000 1.000000 -0.000000
vn 0.000000 1.000000 -0.000000
vn 0.000000 1.000000 -0.000000
vn 0.000000 1.000000 -0.000000
vn 0.000000 1.000000 -0.000000
vn 0.000000 1.000000 -0.000000
vn 0.000000 1.000000 -0.000000
vn 0.013517 0.775181 -0.631595
vn -0.297661 0.400305 0.866691
vn 0.297661 0.400305 0.866691
vn 0.233159 0.370266 0.899188
vn -0.233159 0.370266 0.899188
vn -0.015416 0.773685 -0.633382
vn 0.914338 0.399401 0.066821
vn 0.914338 0.399401 0.066821
vn 0.914338 0.399401 0.066821
vn 0.914338 0.399401 0.066821
vn -0.032192 0.818750 -0.573247
vn -0.032192 0.818750 -0.573247
vn -0.032192 0.818750 -0.573247
vn -0.032192 0.818750 -0.573247
vn -0.032192 0.818750 -0.573247
vn -0.974623 0.223817 0.003863
vn -0.974865 0.222798 0.000000
vn -0.974865 0.222798 0.000000
vn -0.974865 0.222798 0.000000
vn -0.974426 0.224606 0.006858
vn -0.910436 0.409965 0.055089
vn -0.910436 0.409965 0.055089
vn -0.591820 0.512501 0.622167
vn -0.591820 0.512502 0.622167
vn 0.591821 0.512502 0.622166
vn 0.591821 0.512502 0.622166
vn 0.032192 0.818750 -0.573247
vn 0.032192 0.818750 -0.573247
vn 0.032192 0.818750 -0.573247
vn 0.032192 0.818750 -0.573247
vn 0.032192 0.818750 -0.573247
vn -0.584430 0.364939 0.724750
vn -0.584430 0.364939 0.724750
vn -0.584430 0.364939 0.724750
vn -0.584430 0.364939 0.724750
vn 0.021411 0.908027 -0.418365
vn 0.001042 0.913795 -0.406174
vn 0.003201 0.448873 0.893590
vn 0.003201 0.448873 0.893590
vn 0.003201 0.448873 0.893590
vn 0.003201 0.448873 0.893590
vn 0.589802 0.360616 0.722558
vn 0.589802 0.360616 0.722558
vn 0.589802 0.360616 0.722558
vn 0.589802 0.360616 0.722558
vn 0.134166 0.973372 0.185865
vn 0.890289 0.439478 0.119353
vn 0.890289 0.439478 0.119353
vn 0.890289 0.439478 0.119353
vn 0.890289 0.439478 0.119353
vn -0.000254 -0.914580 0.404404
vn 0.006357 -0.912658 0.408675
vn 0.000367 0.913798 -0.406168
vn -0.020013 0.908113 -0.418247
vn -0.000601 -0.914520 0.404539
vn 0.964236 0.247069 0.095950
vn -0.964236 0.247069 0.095950
vn -0.021563 -0.907937 0.418553
vn -0.935467 0.304712 0.179031
vn -0.935467 0.304712 0.179031
vn -0.935467 0.304712 0.179031
vn -0.935467 0.304712 0.179031
vn -0.093545 0.910833 0.402036
s 1
g shelf02
usemtl initialShadingGroup
f 1/1/1 2/2/2 3/50/3
s 2
f 9/7/4 1/1/5 3/50/6 15/14/7
s 1
f 1/1/1 4/3/8 5/4/9 2/2/2
s 3
f 3/50/10 2/2/11 6/52/12 7/51/13 44/49/14 43/42/15
s 2
f 8/41/16 3/50/6 43/39/17
f 9/7/4 10/8/18 4/3/19 1/1/5
s off
f 4/3/20 11/9/21 12/10/22 5/4/23
f 2/2/24 5/4/25 12/11/26 6/52/27
s 4
f 6/5/28 13/12/29 7/6/30
s 5
f 16/15/31 17/16/32 10/8/33 9/7/34 22/20/35
s 2
f 10/8/18 18/17/36 11/9/37 4/3/19
s 4
f 12/10/38 11/9/39 13/12/29 6/5/28
s 2
f 7/6/40 13/12/41 25/23/42 26/24/43
f 14/44/44 7/6/40 26/24/43 33/30/45
s 6
f 14/44/46 19/13/47 20/18/48 8/41/49
s off
f 18/17/50 10/8/51 17/16/52 23/21/53
f 24/22/54 23/21/55 17/16/56 16/15/57 22/20/58 29/26/59 28/25/60 32/29/61
s 2
f 18/17/36 25/23/42 13/12/41 11/9/37
s 6
f 27/19/62 19/13/47 14/44/46
s 7
f 28/25/63 29/26/64 20/18/65 19/13/66
s 6
f 8/41/49 20/18/48 30/27/67
s off
f 21/40/68 8/41/69 30/27/70 31/28/71
f 15/14/72 21/40/73 31/28/74 29/26/75 22/20/76
s 8
f 25/23/77 18/17/78 23/21/79 24/22/80 32/29/81
s 2
f 27/19/82 14/44/44 33/30/45 34/31/83
s 7
f 28/25/63 19/13/66 27/19/84 34/31/85
f 30/27/86 20/18/65 29/26/64 31/28/87
s off
f 33/30/88 26/24/89 32/29/90 28/25/91 34/31/92
f 35/32/93 37/48/94 38/34/95 36/33/96
s 6
f 36/33/97 38/34/98 8/41/49
s off
f 37/48/99 41/47/100 42/35/101 38/34/102
f 41/47/103 40/46/104 39/37/105 42/35/106
s 2
f 14/44/44 44/43/107 7/6/40
s off
f 40/46/108 44/43/109 14/44/110 39/37/111
s 3
f 41/47/112 44/38/14 40/36/113
s 6
f 14/44/46 42/35/114 39/37/115
f 8/41/49 38/34/98 42/35/114 14/44/46
s 3
f 43/39/15 44/38/14 41/47/112 37/48/116
s 5
f 22/20/35 9/7/34 15/14/117
s 8
f 25/23/77 32/29/81 26/24/118
s 3
f 43/39/15 37/48/116 35/45/119
s off
f 36/33/120 8/41/121 43/39/122 35/32/123
s 2
f 8/41/16 21/40/124 15/14/7 3/50/6
