# This file uses centimeters as units for non-parametric coordinates.

mtllib shelf02.mtl
g default
v -0.500000 0.350000 0.559809
v -0.500000 0.000000 0.750000
v -0.500000 0.211686 0.929985
v -0.468734 0.230069 0.904695
v -0.500000 0.350000 -0.750000
v -0.500000 0.000000 -0.750000
v 0.500000 0.000000 0.750000
v 0.500000 0.211686 0.929985
v -0.237304 0.238758 0.904505
v -0.450000 0.350000 0.560093
v -0.450000 0.350000 -0.700000
v 0.500000 0.350000 -0.750000
v 0.500000 0.000000 -0.750000
v 0.500000 0.350000 0.559809
v 0.236586 0.238758 0.904505
v -0.450000 0.241084 0.889541
v -0.450000 0.100000 0.560093
v -0.450000 0.100000 -0.700000
v 0.450000 0.350000 -0.700000
v 0.468734 0.230069 0.904695
v 0.076614 0.078971 0.705413
v -0.076614 0.078971 0.705413
v -0.236986 0.241057 0.889505
v -0.450000 0.100000 0.700000
v 0.450000 0.100000 -0.700000
v 0.450000 0.100000 0.560093
v 0.450000 0.350000 0.560093
v 0.450000 0.241084 0.889541
v 0.180509 0.131423 0.772012
v 0.077593 0.100000 0.700000
v -0.077593 0.100000 0.700000
v -0.180509 0.131423 0.772012
v -0.184030 0.141652 0.755958
v 0.450000 0.100000 0.700000
v 0.236986 0.241057 0.889505
v 0.184030 0.141652 0.755958
v -0.190036 0.291060 1.062473
v -0.190012 0.306785 1.054574
v -0.072267 0.324322 1.140692
v -0.072243 0.340047 1.132793
v 0.190224 0.306040 1.053586
v 0.190200 0.290315 1.061486
v 0.072971 0.324037 1.140315
v 0.072994 0.339762 1.132416
v -0.237723 0.232170 0.932271
v 0.239515 0.233780 0.931017
vt 0.511775 0.645274
vt 0.594785 0.734524
vt 0.535980 0.807093
vt 0.511809 0.030740
vt 0.594785 0.000000
vt 0.057877 0.734529
vt 0.101214 0.818965
vt 0.495106 0.645408
vt 0.495139 0.042175
vt 0.140762 0.030746
vt 0.057877 0.000005
vt 0.942123 0.000005
vt 0.140799 0.645279
vt 0.298126 0.723992
vt 0.526765 0.799983
vt 0.459519 0.645419
vt 0.459540 0.054211
vt 0.157432 0.042180
vt 0.116594 0.807098
vt 0.362220 0.723992
vt 0.253860 0.751388
vt 0.459672 0.711061
vt 0.193715 0.054216
vt 0.193735 0.645424
vt 0.157468 0.645413
vt 0.125809 0.799988
vt 0.292601 0.711115
vt 0.366493 0.711115
vt 0.410259 0.751388
vt 0.417956 0.741035
vt 0.193737 0.711066
vt 0.222710 0.814789
vt 0.245419 0.741035
vt 0.417956 0.887370
vt 0.410259 0.879920
vt 0.362220 0.911238
vt 0.298126 0.911238
vt 0.247519 0.951102
vt 0.253860 0.879920
vt 0.223656 1.000000
vt 0.441390 1.000000
vt 0.440443 0.814789
vt 0.424407 0.819331
vt 0.719319 0.818959
vt 0.222710 0.823368
vt 0.236540 0.819331
vt 0.418903 0.951102
vt 0.245419 0.887370
vt 0.292601 0.923007
vt 0.366493 0.923007
vt 0.837651 0.818959
vt 0.613232 0.818959
vt 0.911122 0.818959
vt 0.942072 0.734529
vn -1.000000 0.000000 0.000000
vn -1.000000 0.000000 0.000000
vn -1.000000 0.000000 0.000000
vn -0.032609 0.996591 0.075778
vn -0.032253 0.996666 0.074950
vn -0.114368 0.924704 0.363101
vn -0.109829 0.921452 0.372644
vn -0.109361 0.921259 0.373258
vn -1.000000 0.000000 0.000000
vn -1.000000 0.000000 0.000000
vn 0.000050 -0.623191 0.782070
vn 0.000050 -0.623191 0.782070
vn 0.000050 -0.623191 0.782070
vn 0.000050 -0.623191 0.782070
vn 0.000267 -0.649194 0.760623
vn 0.000214 -0.649230 0.760592
vn -0.040953 0.913046 0.405796
vn -0.077780 0.970306 0.229035
vn 0.000000 1.000000 -0.000000
vn 0.000000 1.000000 -0.000000
vn 0.000000 0.000000 -1.000000
vn 0.000000 0.000000 -1.000000
vn 0.000000 0.000000 -1.000000
vn 0.000000 0.000000 -1.000000
vn 0.000000 -1.000000 0.000000
vn 0.000000 -1.000000 0.000000
vn 0.000000 -1.000000 0.000000
vn 0.000000 -1.000000 0.000000
vn 1.000000 0.000000 0.000000
vn 1.000000 0.000000 0.000000
vn 1.000000 0.000000 0.000000
vn 1.000000 0.000000 0.000000
vn 1.000000 0.000000 0.000000
vn 1.000000 0.000000 0.000000
vn 1.000000 0.000000 0.000000
vn 1.000000 0.000000 0.000000
vn -0.000000 1.000000 -0.000000
vn -0.000000 1.000000 -0.000000
vn 1.000000 0.000000 0.000000
vn 1.000000 0.000000 0.000000
vn 0.109755 0.921397 0.372803
vn 0.114501 0.924860 0.362662
vn 0.032252 0.996666 0.074950
vn 0.032609 0.996591 0.075778
vn 0.109286 0.921203 0.373419
vn -0.084986 0.920564 0.381233
vn -0.358136 0.847588 0.391579
vn -0.000030 0.852472 -0.522772
vn 0.000188 0.779815 -0.626010
vn -0.000187 0.779815 -0.626010
vn 0.000248 0.852429 -0.522844
vn 0.000000 0.000000 1.000000
vn 0.000000 0.000000 1.000000
vn 0.000000 0.000000 1.000000
vn 0.000000 0.000000 1.000000
vn 0.000000 1.000000 -0.000000
vn 0.000000 1.000000 -0.000000
vn 0.000000 1.000000 -0.000000
vn 0.000000 1.000000 -0.000000
vn 0.000000 1.000000 -0.000000
vn 0.000000 1.000000 -0.000000
vn 0.000000 1.000000 -0.000000
vn 0.000000 1.000000 -0.000000
vn 0.015344 0.773742 -0.633315
vn -0.297661 0.400305 0.866691
vn 0.297661 0.400305 0.866691
vn 0.233159 0.370266 0.899188
vn -0.233159 0.370266 0.899188
vn -0.015416 0.773685 -0.633382
vn 0.914338 0.399401 0.066821
vn 0.914338 0.399401 0.066821
vn 0.914338 0.399401 0.066821
vn 0.914338 0.399401 0.066821
vn -0.000000 0.802172 -0.597093
vn -0.000000 0.802172 -0.597093
vn -0.000000 0.802172 -0.597093
vn -0.000000 0.802172 -0.597093
vn -0.000000 0.802172 -0.597093
vn -1.000000 0.000000 0.000000
vn -1.000000 0.000000 0.000000
vn -1.000000 0.000000 0.000000
vn -1.000000 0.000000 0.000000
vn -1.000000 0.000000 0.000000
vn -0.909290 0.412932 0.051770
vn -0.909290 0.412932 0.051770
vn -0.591820 0.512501 0.622167
vn -0.591820 0.512502 0.622167
vn 0.591821 0.512502 0.622166
vn 0.591821 0.512502 0.622166
vn 0.000000 0.802172 -0.597093
vn 0.000000 0.802172 -0.597093
vn 0.000000 0.802172 -0.597093
vn 0.000000 0.802172 -0.597093
vn 0.000000 0.802172 -0.597093
vn -0.584430 0.364939 0.724750
vn -0.584430 0.364939 0.724750
vn -0.584430 0.364939 0.724750
vn -0.584430 0.364939 0.724750
vn 0.021411 0.908027 -0.418365
vn 0.000523 0.914058 -0.405584
vn 0.003201 0.448873 0.893590
vn 0.003201 0.448873 0.893590
vn 0.003201 0.448873 0.893590
vn 0.003201 0.448873 0.893590
vn 0.589636 0.361842 0.722080
vn 0.589636 0.361842 0.722080
vn 0.589636 0.361842 0.722080
vn 0.589636 0.361842 0.722080
vn 0.083901 0.981000 0.174926
vn 0.915589 0.374004 0.147709
vn 0.915589 0.374004 0.147709
vn 0.915589 0.374004 0.147709
vn 0.915589 0.374004 0.147709
vn 0.003019 -0.916433 0.400177
vn 0.004569 -0.916920 0.399045
vn -0.000122 0.914077 -0.405540
vn -0.018182 0.909190 -0.415984
vn 0.002683 -0.916323 0.400430
vn 1.000000 0.000000 0.000000
vn -1.000000 0.000000 0.000000
vn -0.021563 -0.907937 0.418553
vn -0.935467 0.304712 0.179031
vn -0.935467 0.304712 0.179031
vn -0.935467 0.304712 0.179031
vn -0.935467 0.304712 0.179031
vn -0.024147 0.877178 0.479558
s 1
g shelf02
usemtl initialShadingGroup
f 1/1/1 2/2/2 3/52/3
s 2
f 10/8/4 1/1/5 3/52/6 4/3/7 16/15/8
s 1
f 1/1/1 5/4/9 6/5/10 2/2/2
s 3
f 3/52/11 2/2/12 7/54/13 8/53/14 46/51/15 45/44/16
s 2
f 9/43/17 3/52/6 45/41/18
f 10/8/4 11/9/19 5/4/20 1/1/5
s off
f 5/4/21 12/10/22 13/11/23 6/5/24
f 2/2/25 6/5/26 13/12/27 7/54/28
s 4
f 7/6/29 14/13/30 8/7/31
s 5
f 17/16/32 18/17/33 11/9/34 10/8/35 24/22/36
s 2
f 11/9/19 19/18/37 12/10/38 5/4/20
s 4
f 13/11/39 12/10/40 14/13/30 7/6/29
s 2
f 20/19/41 8/7/42 14/13/43 27/25/44 28/26/45
f 15/46/46 8/7/42 20/19/41 28/26/45 35/32/47
s 7
f 15/46/48 21/14/49 22/20/50 9/43/51
s off
f 19/18/52 11/9/53 18/17/54 25/23/55
f 26/24/56 25/23/57 18/17/58 17/16/59 24/22/60 31/28/61 30/27/62 34/31/63
s 2
f 19/18/37 27/25/44 14/13/43 12/10/38
s 7
f 29/21/64 21/14/49 15/46/48
s 8
f 30/27/65 31/28/66 22/20/67 21/14/68
s 7
f 9/43/51 22/20/50 32/29/69
s off
f 23/42/70 9/43/71 32/29/72 33/30/73
f 16/15/74 23/42/75 33/30/76 31/28/77 24/22/78
s 9
f 27/25/79 19/18/80 25/23/81 26/24/82 34/31/83
s 2
f 29/21/84 15/46/46 35/32/47 36/33/85
s 8
f 30/27/65 21/14/68 29/21/86 36/33/87
f 32/29/88 22/20/67 31/28/66 33/30/89
s off
f 35/32/90 28/26/91 34/31/92 30/27/93 36/33/94
f 37/34/95 39/50/96 40/36/97 38/35/98
s 7
f 38/35/99 40/36/100 9/43/51
s off
f 39/50/101 43/49/102 44/37/103 40/36/104
f 43/49/105 42/48/106 41/39/107 44/37/108
s 2
f 15/46/46 46/45/109 8/7/42
s off
f 42/48/110 46/45/111 15/46/112 41/39/113
s 3
f 43/49/114 46/40/15 42/38/115
s 7
f 15/46/48 44/37/116 41/39/117
f 9/43/51 40/36/100 44/37/116 15/46/48
s 3
f 45/41/16 46/40/15 43/49/114 39/50/118
s 5
f 24/22/36 10/8/35 16/15/119
s 9
f 27/25/79 34/31/83 28/26/120
s 3
f 45/41/16 39/50/118 37/47/121
s off
f 38/35/122 9/43/123 45/41/124 37/34/125
s 2
f 9/43/17 23/42/126 16/15/8 4/3/7 3/52/6
